<?xml version="1.0" encoding="utf-8"?>
<!-- Generator: Adobe Illustrator 16.0.4, SVG Export Plug-In . SVG Version: 6.00 Build 0)  -->
<!DOCTYPE svg PUBLIC "-//W3C//DTD SVG 1.1//EN" "http://www.w3.org/Graphics/SVG/1.1/DTD/svg11.dtd">
<svg version="1.1" id="Layer_1" xmlns="http://www.w3.org/2000/svg" xmlns:xlink="http://www.w3.org/1999/xlink" x="0px" y="0px"
	 width="589.791px" height="201.239px" viewBox="-14.354 19.956 589.791 201.239"
	 enable-background="new -14.354 19.956 589.791 201.239" xml:space="preserve">
<path fill="#246D37" d="M-14.354,112.857c3.672-7.589,7.1-14.933,10.282-22.399c1.224-2.814,2.815-3.426,5.386-3.426
	c11.261,0,22.154,1.957,33.17,4.038c11.995,2.203,23.746,4.896,35.741,6.243c4.529,0.489,9.058,0.734,13.709,0.734
	c11.628-0.123,23.256-0.123,34.884-1.715c9.18-1.224,18.238-2.569,27.417-4.039c11.261-1.713,22.522-2.938,33.783-3.305
	c11.995-0.123,23.746,0.122,35.741,1.713c7.466,1.103,14.688,2.815,22.032,4.162c13.586,2.57,27.051,2.938,40.759,2.081
	c21.297-1.224,42.349-4.528,63.16-8.323c2.447-0.367,4.65-0.856,7.344-1.224c0.367,0.49-0.123,1.103-0.367,1.591
	c-3.305,7.467-6.609,14.934-9.67,22.399c-0.49,1.347-1.346,1.714-2.814,1.714c-30.478,0-61.078,0-91.556-0.123
	c-2.203,0-3.182,0.734-4.039,2.814c-14.076,33.783-28.397,67.689-42.473,101.471c-0.49,1.225-1.102,1.592-2.204,1.592
	c-46.267,0-92.657,0-138.924,0c-1.958,0-1.958-0.49-1.224-1.959c14.199-33.781,28.397-67.811,42.473-101.714
	c0.122-0.49,0.367-0.856,0.489-1.347c0.367-0.856,0.123-1.223-0.734-1.102c-0.489,0-1.102,0-1.346,0c-36.108,0-71.971,0-108.079,0
	C-12.395,112.857-13.252,112.857-14.354,112.857z"/>
<path fill="#246D37" d="M447.218,179.077c-2.57,6.242-4.652,12.482-7.834,18.357c-5.02,9.549-13.342,15.303-23.379,18.729
	c-7.955,2.814-16.156,3.184-24.48,3.305c-7.588,0.123-15.422,0.49-23.133,0.123c-10.895-0.49-19.951-4.895-25.338-14.688
	c-2.57-4.896-2.814-10.037-1.102-15.301c4.162-12.361,9.426-24.234,14.443-36.229c1.592-3.795,3.182-7.59,4.65-11.506
	c4.283-10.037,12.119-15.912,22.154-19.462c5.752-1.958,11.627-2.938,17.748-2.938c10.525,0,21.176-0.122,31.578,0
	c8.814,0.123,16.279,3.673,22.033,10.283c5.264,6.119,6.242,13.219,3.672,20.686c-1.225,3.427-2.57,6.732-3.795,10.281
	c-0.367,1.102-0.857,1.347-1.959,1.347c-11.75,0-23.623-0.123-35.373-0.123c-1.592,0-1.592-0.366-1.102-1.591
	c1.713-4.162,3.428-8.445,5.264-12.607c0.734-1.591,1.102-3.305,1.102-5.019c-0.367-5.019-4.65-8.201-10.281-6.978
	c-7.344,1.346-12.607,5.508-15.666,12.362c-5.754,13.708-11.262,27.417-16.893,41.005c-0.367,1.102-0.855,2.08-0.855,3.182
	c-0.857,5.875,3.305,10.281,9.424,9.424c7.834-1.223,13.219-5.508,16.523-12.605c1.225-2.814,2.203-5.508,3.428-8.445
	c0.367-0.855,0.734-1.346,1.713-1.346C422.247,178.954,434.487,178.831,447.218,179.077z"/>
<path fill="#246D37" d="M377.448,19.956c-1.59,3.795-3.182,7.344-4.527,10.895c-0.367,1.102-1.225,0.857-2.08,1.102
	c-13.342,2.448-26.562,4.651-39.902,6.365c-14.688,1.958-29.499,3.305-44.431,3.305c-12.485,0-24.603-1.957-36.598-4.65
	c-10.771-2.448-21.665-3.305-32.803-3.795c-17.503-0.856-34.884,1.103-52.02,3.795c-14.933,2.447-29.866,4.283-44.921,4.896
	c-17.993,0.733-35.741-1.225-53.489-5.02C55.171,34.4,43.787,32.197,31.915,31.34c-3.183-0.123-6.365-0.123-9.547,0
	c-1.224,0-1.346-0.123-0.857-1.348c1.347-2.938,2.57-5.875,3.794-8.812c0.367-1.102,0.857-1.225,1.958-1.225
	c0.367,0,0.734,0,1.102,0c115.545,0,231.091,0,346.638,0C375.491,19.956,376.347,19.956,377.448,19.956z"/>
<path fill="#246D37" d="M12.697,49.7c1.346-3.306,2.938-6.609,4.284-9.916c0.367-0.857,1.224-0.734,1.958-0.857
	c6.977-0.366,13.709,0.367,20.441,1.225c14.076,1.958,27.785,5.264,41.616,7.59c8.446,1.346,17.014,2.08,25.704,1.713
	c7.589-0.367,15.3-0.123,22.889-0.734c9.547-0.734,18.972-2.081,28.274-3.672c13.832-2.203,27.785-4.162,41.983-4.529
	c18.972-0.489,37.455,1.348,55.814,5.753c14.198,3.306,28.764,3.427,43.33,2.569c23.134-1.346,46.023-5.018,68.666-9.424
	c0.367,0,0.857,0,1.594-0.123c-1.594,3.672-2.939,6.977-4.285,10.281c-0.121,0.49-0.855,0.734-1.348,0.734
	c-21.297,4.04-42.84,7.344-64.504,9.059c-19.46,1.59-38.678,0.489-57.771-4.162c-11.628-2.938-23.623-3.428-35.374-3.795
	c-17.871-0.488-35.374,1.715-52.877,4.529c-15.422,2.57-30.845,4.04-46.512,4.284c-16.524,0.489-32.436-2.448-48.593-5.753
	c-12.362-2.57-24.602-5.02-37.087-5.264C18.082,49.456,15.512,49.7,12.697,49.7z"/>
<path fill="#246D37" d="M357.62,66.101c-1.225,3.183-2.201,6.243-3.428,9.425c-0.367,1.102-1.223,0.857-1.957,1.102
	c-11.752,2.082-23.623,4.162-35.375,5.875c-12.606,1.713-25.336,3.183-37.943,3.672c-15.667,0.734-31.089-0.489-46.145-4.161
	c-11.628-2.815-23.378-3.794-35.251-4.162c-17.993-0.733-35.863,1.224-53.611,4.162c-15.79,2.569-31.579,4.161-47.491,4.651
	c-17.38,0.489-34.027-2.082-50.796-5.508c-11.505-2.205-22.889-4.529-34.517-5.265c-2.815-0.122-5.508,0-8.323,0
	c-1.102,0-1.346-0.122-0.857-1.224c0.857-1.592,1.714-3.184,2.081-4.651c0.734-2.815,2.57-3.183,5.018-3.183
	c12.118-0.123,24.113,1.713,36.108,3.793c12.484,2.082,24.847,4.529,37.454,5.387c7.956,0.49,16.157-0.123,24.113-0.123
	c16.279-0.122,32.436-3.182,48.471-5.508c18.727-2.938,37.454-3.795,56.426-2.448c9.915,0.735,19.584,2.571,29.376,4.651
	c14.933,3.305,29.866,3.793,45.166,2.938c22.399-1.225,44.43-4.65,66.34-8.689C353.825,66.467,355.54,66.101,357.62,66.101
	C357.497,65.979,357.497,65.979,357.62,66.101z"/>
<path fill="#246D37" d="M331.304,124.241c-1.713-0.734-3.426-1.346-5.262-1.713c-14.936-3.672-29.989-3.794-44.922-0.857
	c-16.279,3.306-27.785,12.607-34.394,27.785c-0.734,1.592-0.734,2.082,1.224,2.082c10.037,0,20.318,0,30.355,0
	c1.591,0,2.448-0.367,3.305-1.715c4.039-7.099,14.076-10.281,21.665-7.099c2.939,1.224,4.162,3.672,3.794,6.731
	c-0.734,4.896-3.794,7.59-8.201,9.18c-4.896,1.714-9.669,1.959-14.688,2.082c-10.404,0.367-20.686,1.347-30.478,4.283
	c-17.014,4.896-26.316,15.668-28.397,33.17c-1.102,8.814,2.815,15.912,10.771,19.83c5.386,2.57,11.138,3.305,17.014,3.182
	c11.505-0.365,22.032-3.672,31.212-11.627c-0.367,2.814-0.734,5.387-0.367,7.832c0.123,1.104,0.367,1.348,1.591,1.348
	c11.139,0,22.399,0,33.536,0c0.857,0,1.348-0.121,1.227-1.225c-0.49-3.428-0.123-6.977,1.102-10.279
	c3.672-10.404,7.955-20.441,11.994-30.725c3.672-9.67,7.59-19.217,10.037-29.498C345.38,136.236,341.341,128.402,331.304,124.241z
	 M288.464,192.295c-5.386,6.119-11.995,7.834-19.829,6.365c-4.896-0.857-6.732-4.162-5.385-8.814
	c1.591-5.264,6.12-8.812,12.362-9.547c5.753-0.734,11.628-0.855,17.136-2.814c1.224-0.367,2.447-0.857,4.038-1.348
	C294.707,182.258,292.381,187.766,288.464,192.295z"/>
<path fill="#246D37" d="M569.862,129.015c-4.039-4.284-9.059-6.978-14.688-8.446c-2.816-0.734-5.387-1.102-8.201-1.102
	c-12.607,0-25.338-0.734-37.822,1.346c-15.789,2.57-28.273,10.282-34.518,26.193c-5.508,13.832-11.75,27.541-16.891,41.861
	c-2.938,8.324-1.225,15.789,5.02,22.154c3.793,3.795,8.445,6.242,13.709,7.834c5.262,1.592,10.525,0.855,15.91,1.102
	c5.51,0.123,10.895,0,16.523-0.367c5.631-0.367,11.141-0.367,16.525-1.592c14.197-3.426,25.703-10.525,31.455-24.969
	c5.51-13.832,11.629-27.541,16.893-41.617C576.839,142.967,575.737,135.624,569.862,129.015z M536.937,147.864
	c-5.508,13.586-11.139,27.051-16.646,40.637c-2.938,7.1-8.322,11.506-15.912,12.852c-7.467,1.227-11.994-4.16-9.18-11.26
	c2.938-7.834,6.242-15.422,9.426-23.256c2.447-5.875,4.895-11.996,7.344-17.871c2.938-7.344,8.322-11.75,15.912-13.342
	c5.752-1.224,10.281,2.203,10.281,7.59C538.161,144.804,537.548,146.273,536.937,147.864z"/>
</svg>
